<svg width="60" height="60" viewBox="0 0 60 60" fill="none" xmlns="http://www.w3.org/2000/svg">
<g opacity="0.9">
<rect width="60" height="60" fill="#BF9D77"/>
<path fill-rule="evenodd" clip-rule="evenodd" d="M35.4532 24H24.5442C23.8747 24 23.332 24.597 23.332 25.3333V26.6667C23.332 27.403 23.8747 28 24.5442 28H35.4532C36.1227 28 36.6654 27.403 36.6654 26.6667V25.3333C36.6654 24.597 36.1227 24 35.4532 24ZM24.5442 29.333H35.4532C36.1227 29.333 36.6654 29.93 36.6654 30.6663V31.9997C36.6654 32.7361 36.1227 33.333 35.4532 33.333H24.5442C23.8747 33.333 23.332 32.7361 23.332 31.9997V30.6663C23.332 29.93 23.8747 29.333 24.5442 29.333ZM24.6641 30.666V31.9993H35.3307V30.666H24.6641ZM24.6641 25.333V26.6663H35.3307V25.333H24.6641ZM31.332 34.667H23.332V36.0003H31.332V34.667Z" fill="white"/>
</g>
</svg>
