<svg width="14" height="12" viewBox="0 0 14 12" fill="none" xmlns="http://www.w3.org/2000/svg">
<path fill-rule="evenodd" clip-rule="evenodd" d="M12.4532 0H1.54415C0.874716 0 0.332031 0.596954 0.332031 1.33333V2.66667C0.332031 3.40305 0.874716 4 1.54415 4H12.4532C13.1227 4 13.6654 3.40305 13.6654 2.66667V1.33333C13.6654 0.596954 13.1227 0 12.4532 0ZM1.54415 5.33301H12.4532C13.1227 5.33301 13.6654 5.92996 13.6654 6.66634V7.99967C13.6654 8.73605 13.1227 9.33301 12.4532 9.33301H1.54415C0.874716 9.33301 0.332031 8.73605 0.332031 7.99967V6.66634C0.332031 5.92996 0.874716 5.33301 1.54415 5.33301ZM1.66406 6.66602V7.99935H12.3307V6.66602H1.66406ZM1.66406 1.33301V2.66634H12.3307V1.33301H1.66406ZM8.33203 10.667H0.332031V12.0003H8.33203V10.667Z" fill="white"/>
</svg>
