<svg width="165" height="170" viewBox="0 0 165 170" fill="none" xmlns="http://www.w3.org/2000/svg">
<g filter="url(#filter0_d_2231_21979)">
<rect width="64.6281" height="69.0909" transform="translate(50 30)" fill="white"/>
<path fill-rule="evenodd" clip-rule="evenodd" d="M74.5495 68.0371L75.0379 69.0163C75.2309 68.9939 75.2363 68.9841 76.0449 67.198C76.2437 66.7591 76.523 66.1501 76.6658 65.8448C77.1076 64.9 77.4577 64.1142 77.4811 64.0149C77.4935 63.9627 77.4458 63.9104 77.3753 63.8987C77.3048 63.8869 77.2301 63.8603 77.2092 63.8395C77.1768 63.8071 77.3032 63.4573 77.538 62.93C77.7966 62.3492 78.0257 61.7853 78.0257 61.7298C78.0257 61.6931 78.0665 61.6293 78.1164 61.588C78.1863 61.5302 78.2731 61.604 78.4944 61.9092C78.6523 62.1271 79.2785 62.9925 79.886 63.8322C82.5178 67.4706 82.9811 68.1001 83.0256 68.099C83.0515 68.0983 83.3334 67.7157 83.6521 67.2488C83.9708 66.782 84.5045 66.0096 84.8382 65.5325C85.4305 64.6857 85.74 64.2425 86.68 62.8953C86.933 62.5327 87.2858 62.0227 87.4641 61.7619C87.6423 61.5012 87.8118 61.3138 87.8408 61.3455C87.8697 61.3773 88.0413 61.8248 88.2221 62.3401C88.6413 63.5347 88.7094 63.7089 88.6509 63.781C88.6362 63.7991 88.6135 63.8107 88.5865 63.8305C88.5212 63.878 88.4679 63.9392 88.4679 63.9665C88.4679 63.9937 88.8595 64.8133 89.3381 65.7877C89.8167 66.7621 90.2083 67.5874 90.2083 67.6216C90.2083 67.6559 90.1143 67.6838 89.9994 67.6838C89.8846 67.6838 89.7906 67.7107 89.7906 67.7436C89.7906 67.7765 90.4182 68.846 91.1853 70.1205C92.267 71.9174 92.5498 72.3352 92.4986 72.7073C92.4765 72.8679 92.3923 73.0199 92.2833 73.2704C91.6148 74.8065 90.6132 75.9418 89.4087 76.5288C88.5459 76.9493 87.9633 77.0762 87.0636 77.0394C86.4187 77.013 86.2986 76.9864 85.8983 76.7818C84.719 76.1788 83.9076 74.897 83.383 72.8082C83.3043 72.4948 83.2957 72.4867 83.1105 72.5511L82.9192 72.6176L83.1123 73.3604C83.3504 74.2767 83.4422 74.5322 83.7567 75.1548C84.1904 76.0134 84.8439 76.729 85.5973 77.1706C86.3246 77.5969 87.5591 77.7197 88.5723 77.4666C89.8895 77.1375 91.0821 76.3572 91.8433 75.3263C92.1755 74.8765 92.7228 73.8965 92.817 73.5827C92.8457 73.4873 92.9104 73.3155 92.9608 73.201C93.275 72.488 93.6051 70.628 93.6628 69.2453C93.6956 68.4567 93.6752 68.0842 93.5542 67.2674C93.5049 66.9339 93.4715 66.7066 93.4315 66.4804C93.3406 65.9668 93.2155 65.4592 92.7908 63.7281C92.3784 62.047 92.3086 61.7066 92.132 60.516C92.0589 60.023 92.0583 59.794 92.1287 59.3194C92.3013 58.1554 92.3794 56.0042 92.2999 54.6022C92.2209 53.2086 92.219 53.1915 92.0156 52.1C91.7527 50.6885 91.3485 49.396 90.8016 48.2175C90.6599 47.9121 90.5159 47.5998 90.4817 47.5235C90.4475 47.4472 90.3415 47.2598 90.2461 47.1071C90.1507 46.9544 90.0207 46.7358 89.9572 46.6213C89.8937 46.5068 89.6736 46.1686 89.4681 45.8697C89.2626 45.5709 89.0944 45.3161 89.0944 45.3035C89.0944 45.1895 90.9751 45.883 91.9138 46.343C93.469 47.1051 94.592 47.9155 96.0577 49.3331L96.6512 49.9071L97.1223 49.4874C97.3813 49.2565 97.6046 49.0793 97.6184 49.0936C97.9058 49.3916 99.6063 53.7523 99.6063 54.1913C99.6063 54.3561 99.6881 54.3091 100.29 53.7978C100.609 53.5272 100.881 53.3163 100.894 53.3293C100.907 53.3424 100.98 53.6028 101.056 53.9082C101.327 54.9914 101.381 55.6377 101.381 57.7425C101.381 58.8589 101.386 59.7724 101.39 59.7724C101.431 59.7723 102.271 59.4143 102.613 59.2517C102.716 59.2027 102.813 59.1756 102.829 59.1915C102.863 59.2247 102.838 60.1391 102.772 61.2991C102.727 62.1056 102.454 63.8621 102.172 65.1677C102.088 65.5587 102.033 65.893 102.051 65.9105C102.068 65.9281 102.404 65.8779 102.797 65.799C103.19 65.72 103.526 65.6692 103.543 65.686C103.592 65.735 103.181 66.8128 102.755 67.7532C102.373 68.5977 101.782 69.7249 101.428 70.2863C101.332 70.439 101.175 70.6888 101.08 70.8415C100.985 70.9941 100.849 71.2037 100.779 71.3071C100.708 71.4105 100.65 71.5198 100.65 71.55C100.65 71.5801 101.045 71.5952 101.527 71.5835L102.404 71.562L102.275 71.7795C101.726 72.7117 99.6242 74.8644 97.9644 76.1952C97.604 76.4843 97.3091 76.7408 97.3091 76.7653C97.3092 76.7898 97.6303 76.8846 98.0227 76.976C98.6868 77.1308 98.9569 77.1866 98.9663 77.271C98.9731 77.3326 98.8414 77.4093 98.6228 77.5507C96.9448 78.636 94.9541 79.6739 93.4287 80.2589L92.4374 80.6391L93.1502 81.1153C93.5423 81.3772 93.8754 81.6001 93.8904 81.6105C93.9528 81.6541 93.7244 81.8471 93.3875 82.0357C92.7326 82.4022 91.734 82.673 88.6071 83.3322C85.9244 83.8978 84.7847 84.2266 83.7515 84.7332L83.2468 84.9806V87.0155C83.2468 88.1556 83.2745 89.0675 83.3098 89.0893C83.3444 89.1106 83.4717 88.9173 83.5925 88.6597C84.1867 87.3922 85.221 86.1419 86.5883 85.0382C87.8513 84.0186 87.9372 83.9815 90.626 83.2936C91.7262 83.0122 92.1243 82.9107 92.5192 82.7981C92.7628 82.7286 93.0052 82.6548 93.4106 82.532C94.1164 82.3179 95.3979 81.7525 95.6626 81.5382C95.833 81.4003 95.7871 81.3423 95.2092 80.9663C94.9398 80.7909 94.746 80.6237 94.7785 80.5946C94.8111 80.5655 95.2292 80.3398 95.7079 80.0931C97.6217 79.1069 98.8976 78.2233 100.146 77.0202C100.575 76.6066 100.775 76.4277 100.741 76.3293C100.712 76.2433 100.503 76.2188 100.111 76.1531C99.8334 76.1066 99.6063 76.0516 99.6063 76.0308C99.6063 76.01 99.8663 75.7084 100.184 75.3604C101.353 74.0804 102.451 72.5877 103.323 71.0925C103.576 70.6583 103.783 70.2885 103.783 70.2708C103.783 70.253 103.47 70.2493 103.087 70.2624C102.704 70.2755 102.391 70.265 102.391 70.2389C102.391 70.2129 102.593 69.7894 102.84 69.2978C103.722 67.5398 104.344 65.7103 104.584 64.1698L104.628 63.8829L104.223 63.984C103.379 64.1945 103.215 64.226 103.175 64.1855C103.151 64.1625 103.169 63.9019 103.214 63.6062C103.469 61.9164 103.626 57.9907 103.459 57.4715L103.4 57.2873L102.818 57.6313C102.498 57.8205 102.227 57.9658 102.216 57.9543C102.205 57.9427 102.163 57.5898 102.123 57.1699C102.013 56.0278 101.838 54.5444 101.801 54.4458C101.783 54.398 101.719 54.0701 101.659 53.7171C101.599 53.3642 101.502 52.9192 101.444 52.7284C101.229 52.0242 100.983 51.3751 100.931 51.3751C100.901 51.3751 100.637 51.5664 100.343 51.8001C100.05 52.0339 99.8004 52.2135 99.7896 52.1992C99.7788 52.1849 99.7001 52.0014 99.6148 51.7915C99.5294 51.5816 99.432 51.3474 99.3981 51.271C99.3644 51.1947 99.1738 50.7575 98.9748 50.2994C98.6368 49.5219 98.3152 48.8833 97.925 48.2151C97.7006 47.831 97.2134 47.1436 97.1647 47.1426C97.1428 47.1421 96.8955 47.4081 96.6153 47.7335C96.1679 48.2531 96.0921 48.3138 95.9938 48.2316C94.9335 47.3449 94.163 46.7991 93.2204 46.267C91.2267 45.1414 89.0121 44.435 86.1706 44.0182C85.0695 43.8567 84.9166 43.8504 84.9205 43.9668C84.9221 44.0146 85.2117 44.2565 85.5642 44.5046C86.3049 45.026 87.0934 45.7099 87.8529 46.4898C89.8718 48.563 91.1534 51.093 91.6107 53.9082C91.7327 54.6593 91.7257 57.3235 91.5997 58.1415C91.4229 59.2885 91.5031 61.2739 91.7735 62.4438C92.1654 64.1396 92.2512 64.4823 92.3328 64.6777C92.474 65.0162 92.6865 65.8297 92.8641 66.7122C93.0046 67.4104 93.0241 67.7059 93.02 69.0718C93.0166 70.1951 92.9861 70.7593 92.9113 71.0823C92.8083 71.5277 92.8065 71.53 92.6992 71.3599C92.5435 71.1131 91.83 69.874 91.5564 69.3756L91.3232 68.9506L91.8749 68.8626L91.6681 68.5131C91.5543 68.3208 91.4613 68.1491 91.4613 68.1315C91.4613 68.114 91.2466 67.7171 90.9843 67.2497C90.7219 66.7823 90.3734 66.1501 90.2097 65.8448C90.0461 65.5394 89.8827 65.2525 89.8466 65.2071C89.8005 65.1496 89.8452 65.0915 89.9945 65.0145C90.1121 64.9539 90.2083 64.8891 90.2083 64.8705C90.2083 64.8518 89.7697 63.9452 89.2337 62.8557C88.6976 61.7663 88.2591 60.8588 88.2591 60.8392C88.2591 60.7819 89.1657 59.5019 89.2378 59.4576C89.3336 59.3984 89.3127 59.0506 89.1739 58.3961C89.0826 57.9652 89.0326 57.8413 88.978 57.9103C88.9377 57.9611 88.7912 58.1657 88.6524 58.3649C88.5138 58.5641 88.2525 58.9389 88.0719 59.1977C86.6938 61.1725 84.0819 65.2184 83.2998 66.59C83.1749 66.809 83.0535 66.9886 83.03 66.989C83.0065 66.9895 82.9094 66.8727 82.8141 66.7296C82.5776 66.3742 81.9395 65.3832 81.6065 64.8541C80.9928 63.8791 80.7761 63.5393 79.1402 60.9868C78.7243 60.338 78.1421 59.4245 77.8465 58.957L77.3088 58.1069L77.0097 58.7691C76.8451 59.1333 76.6932 59.4855 76.6721 59.552C76.646 59.6338 76.801 59.8727 77.1541 60.295C77.4403 60.6374 77.6752 60.9532 77.6761 60.9969C77.6811 61.2561 76.6412 63.4517 75.9441 64.6537C75.7485 64.991 75.6061 65.2955 75.6277 65.3303C75.6493 65.3651 75.777 65.3937 75.9116 65.3937C76.073 65.3937 76.1486 65.4232 76.1337 65.4804C76.1213 65.5282 75.7878 66.1687 75.3924 66.9039C74.738 68.1209 74.5495 68.0371 74.5495 68.0371ZM83.1772 49.1408C83.1772 49.0464 83.213 48.7913 83.2569 48.5736C83.303 48.3446 83.3689 48.1887 83.4132 48.2034C83.4553 48.2174 83.5213 48.4605 83.5598 48.7437L83.6297 49.2585L84.0299 49.2504C84.2501 49.246 84.4286 49.2616 84.4268 49.2851C84.4248 49.3086 84.1858 49.5055 83.8956 49.7225L83.368 50.1171L82.8599 49.7252C82.5804 49.5096 82.367 49.3086 82.3857 49.2784C82.4044 49.2483 82.5902 49.2435 82.7985 49.2679C83.1668 49.3111 83.1772 49.3076 83.1772 49.1408ZM79.7962 51.4726C79.7044 50.8626 80.1302 50.1682 80.7754 49.8755C81.5073 49.5434 82.3321 49.7307 83.0553 50.393L83.2468 50.5683L83.246 53.2142L82.3936 53.2197C81.9248 53.2228 81.4197 53.2604 81.2711 53.3034L81.001 53.3815L80.6351 53.0079C80.2212 52.5853 79.8657 51.9347 79.7962 51.4726ZM83.7811 50.3892C84.005 50.1544 84.2581 50.0036 84.7087 49.8365C85.1303 49.6801 85.438 49.6829 85.8884 49.847C86.3253 50.0062 86.6739 50.3159 86.8806 50.7285C87.1877 51.3416 86.8713 52.3416 86.1426 53.0613C85.8796 53.3211 85.7679 53.3882 85.6553 53.3543C85.3132 53.2512 84.3618 53.1744 83.9495 53.2165L83.5035 53.2623L83.5843 50.5956L83.7811 50.3892ZM81.1237 53.5378C81.1491 53.5125 81.363 53.471 81.5991 53.4456C82.1225 53.3894 85.2387 53.4296 85.4571 53.4954C85.5965 53.5374 85.6137 53.5878 85.6137 53.9529V54.3632L84.7609 54.3092C83.6825 54.2409 83.0199 54.2411 81.9177 54.31L81.0411 54.3648L81.0594 53.9742C81.0694 53.7595 81.0984 53.5631 81.1237 53.5378ZM80.5318 56.5804C81.2143 55.8984 81.8292 55.538 82.5854 55.3767C82.9058 55.3084 83.047 55.2752 83.1881 55.2757C83.3223 55.2762 83.4564 55.3073 83.7445 55.3677C84.3696 55.4988 84.9039 55.7538 85.4048 56.1603C85.8965 56.5591 86.0371 56.7089 86.7276 57.569C86.7506 57.5977 87.143 57.1868 87.5995 56.656L88.4295 55.6909L88.5837 56.361C88.6686 56.7296 88.7399 57.0674 88.7422 57.1118C88.7445 57.1562 88.5506 57.4416 88.3113 57.7461C87.8984 58.2713 87.2105 59.2009 86.3241 60.4317C86.1042 60.737 85.7249 61.2991 85.4813 61.6808C85.2378 62.0625 84.9884 62.4529 84.9272 62.5483C84.3698 63.4175 83.2359 65.5871 83.1401 65.9679C83.0711 66.2417 82.9939 66.2033 82.7876 65.7927C82.5233 65.2667 80.1897 61.1937 79.6339 60.2883C79.0963 59.4124 78.5045 58.5462 78.0145 57.9174C77.6685 57.4736 77.6286 57.3603 77.7444 57.1516C77.8663 56.9319 78.2345 56.0375 78.2345 55.9611C78.2345 55.8306 78.3656 55.8798 78.4504 56.0422C78.6025 56.3332 79.5085 57.6904 79.5504 57.6899C79.5733 57.6896 79.6703 57.5729 79.766 57.4305C79.8618 57.2881 80.2063 56.9055 80.5318 56.5804ZM85.5693 56.9982C85.1505 56.5471 84.712 56.2428 84.184 56.0366C83.3834 55.724 82.4809 55.8227 81.6533 56.3133C80.9147 56.7512 79.6896 58.2921 79.885 58.5375C80.1088 58.8183 82.6463 63.8643 82.9052 64.5434C82.9858 64.7544 83.0823 64.7403 83.1403 64.5088C83.2822 63.9424 85.3299 60.046 86.1473 58.7871C86.3132 58.5315 86.4491 58.3014 86.4491 58.2757C86.4491 58.1502 85.9037 57.3582 85.5693 56.9982Z" fill="#2B323C"/>
<path d="M83.6396 40.4674C82.763 41.5355 81.2923 42.7186 79.766 43.5834C78.8129 44.1235 78.5466 44.2513 76.3897 45.2044C75.5857 45.5597 74.4124 46.1098 73.7825 46.4267C73.1525 46.7437 72.6043 47.003 72.5642 47.0031C72.5149 47.0031 72.4977 46.4738 72.5112 45.3666C72.531 43.7356 72.4958 43.5048 72.3138 44.0719C72.2264 44.3442 71.7432 45.3186 71.5486 45.615C70.9968 46.4557 70.7146 46.8042 69.9762 47.5582C69.0393 48.5147 68.3936 49.2492 67.5664 50.2993C67.2658 50.6811 66.9821 51.041 66.9361 51.0992C66.8901 51.1573 66.6818 51.4306 66.4733 51.7064C66.2648 51.9822 66.069 52.2079 66.0382 52.2079C66.0075 52.2079 65.9823 52.0928 65.9823 51.9521C65.9823 51.6628 65.7557 50.8029 65.5559 50.3341C65.4057 49.9818 65.0833 49.3563 65.0086 49.2725C64.9814 49.242 64.94 49.4606 64.9165 49.7583C64.8059 51.1594 64.4481 52.553 63.8243 54.0123C63.1929 55.4894 62.5816 57.5949 62.3637 59.0437C62.3177 59.349 62.2489 59.7706 62.2107 59.9806C62.1725 60.1905 62.124 61.0571 62.103 61.9064C62.082 62.7557 62.0456 63.4492 62.0221 63.4477C61.9986 63.4462 61.8619 63.2978 61.7182 63.1181C61.5746 62.9383 61.3622 62.6844 61.2463 62.5539C61.1304 62.4234 60.8253 62.0721 60.5684 61.7732C60.3115 61.4743 60.0775 61.2297 60.0484 61.2297C59.9617 61.2297 59.9862 61.4672 60.165 62.3604C60.2583 62.8263 60.385 63.4731 60.4465 63.7975C60.6203 64.7147 60.9692 66.2973 61.0737 66.6428C61.644 68.5274 62.0039 69.4096 62.7996 70.8734C63.3661 71.9155 65.0156 74.3582 65.4258 74.7625C65.5533 74.8882 65.8515 75.3324 65.8256 75.3582C65.8082 75.3755 65.2707 75.2857 64.6311 75.1586C63.9914 75.0316 63.4534 74.9513 63.4355 74.9801C63.4176 75.0089 63.5897 75.1589 63.818 75.3134C64.3064 75.6441 64.7835 76.0398 66.3091 77.3796C67.4914 78.4179 68.7092 79.3928 69.03 79.5577C69.1342 79.6113 69.2606 79.694 69.311 79.7414C69.5315 79.9494 71.0436 80.7488 71.7995 81.0571C72.2501 81.2409 72.9999 81.4935 73.2453 81.5444C73.3885 81.574 73.5061 81.6295 73.5067 81.6677C73.5079 81.7432 73.3988 81.774 72.3388 81.9965C71.9487 82.0784 71.6439 82.1689 71.6617 82.1975C71.6984 82.2566 72.9665 82.6546 73.8488 82.8838C74.1742 82.9683 74.6441 83.0934 74.893 83.1617C75.1419 83.23 75.4551 83.3073 75.5891 83.3337C76.7716 83.5663 79.121 84.4821 80.1359 85.1062C81.1038 85.7013 81.9952 86.6244 82.4113 87.4625C82.5345 87.7106 82.6619 87.9658 82.6947 88.0297C82.7273 88.0936 82.7921 88.3513 82.8384 88.6023C82.8848 88.8533 82.9487 89.0586 82.9804 89.0586C83.012 89.0586 83.0379 88.1408 83.0379 87.0189V84.9792L82.8489 84.9318C82.7449 84.9058 82.5274 84.8244 82.3655 84.7508C82.2035 84.6773 82.0349 84.6171 81.9906 84.6171C81.9464 84.6171 81.8116 84.573 81.691 84.519C81.3975 84.3878 80.131 83.9925 80.0041 83.9925C79.9487 83.9925 79.8489 83.9617 79.7825 83.924C79.6627 83.8562 79.0202 83.6875 77.893 83.428C77.5711 83.354 77.2822 83.2776 77.251 83.2584C77.2197 83.2391 76.9505 83.1775 76.6527 83.1215C76.3549 83.0655 75.9076 82.976 75.6588 82.9228C75.4099 82.8695 75.0363 82.7915 74.8287 82.7495C74.2221 82.6265 74.2319 82.6098 75.0322 82.4035C75.3577 82.3195 75.7962 82.2062 76.0068 82.1516C76.2174 82.0969 76.5123 82.0086 76.6622 81.9552C76.9044 81.8689 76.9198 81.8505 76.8014 81.7883C76.7281 81.7499 76.5272 81.6969 76.3549 81.6705C75.4635 81.5339 73.4563 81.0751 73.2829 80.9682C73.2485 80.947 73.0251 80.8729 72.7862 80.8034C71.8042 80.5179 70.2075 79.7698 69.2542 79.1486C68.3283 78.5453 66.9798 77.3342 67.1652 77.2726C67.2318 77.2504 68.8399 77.4398 69.1672 77.5083C69.4625 77.5701 69.3303 77.3618 68.8539 77.0143C67.8409 76.2756 66.3555 74.9258 65.4943 73.9614C65.3224 73.7688 65.0721 73.4881 64.9381 73.3375C64.3085 72.6299 63.3867 71.2456 62.9064 70.2863C62.4904 69.4554 62.0483 68.2852 61.8715 67.5477C61.6964 66.8167 61.514 65.661 61.5657 65.6095C61.5889 65.5864 62.1473 66.1217 62.8067 66.7991C63.4661 67.4765 64.0432 68.0308 64.089 68.0308C64.1861 68.0308 64.2006 67.9176 64.1104 67.862C64.0764 67.8411 64.0269 67.7377 64.0006 67.6324C63.9742 67.5271 63.9101 67.3472 63.858 67.2327C63.7332 66.9586 63.455 66.1132 63.2756 65.4631C63.1531 65.0193 63.0951 64.7649 62.9435 64.0057C62.7043 62.8077 62.6407 60.2775 62.8161 58.9396C62.9542 57.8866 63.2996 56.4298 63.5483 55.8513C63.5812 55.775 63.6927 55.4939 63.7962 55.2268C64.0757 54.5054 64.5829 53.4571 64.6525 53.4571C64.8071 53.4571 65.2122 54.7532 65.2164 55.2615C65.2206 55.7699 65.3798 56.0014 65.467 55.6258C65.8512 53.9709 66.7918 51.98 67.8578 50.5652C68.2667 50.0227 69.7373 48.5216 70.1604 48.2151C70.3166 48.1019 70.5568 47.9234 70.6942 47.8184C71.1015 47.5073 71.146 47.5456 71.0977 48.1654C71.0611 48.6354 70.9151 49.501 70.811 49.8657C70.7433 50.1026 70.8929 49.9824 71.0627 49.6633C71.4129 49.0054 72.1889 48.2643 73.2346 47.5895C73.976 47.111 75.7092 46.1268 76.6334 45.6596C78.2408 44.8469 80.4034 43.7267 81.2219 43.2828C81.3909 43.1912 81.5401 43.1271 81.5535 43.1404C81.6308 43.2176 80.9587 44.4549 80.2659 45.5109C79.5056 46.6698 78.8313 47.4565 77.2921 48.9809C75.39 50.8646 74.6168 51.886 73.2358 54.339L72.9541 54.8392L73.6277 54.5018C74.9932 53.8178 75.9435 53.3782 76.0095 53.4002C76.1999 53.4634 75.571 54.295 74.3398 55.6084C72.6733 57.3862 72.3511 57.8304 71.9297 58.9304C71.6868 59.5644 71.3499 60.7815 71.1395 61.7849C71.0714 62.1094 70.9965 62.4373 70.973 62.5136C70.9363 62.6326 70.5769 65.0245 70.5769 65.1496C70.5769 65.1741 71.1172 64.6928 71.7777 64.0801C72.5554 63.3586 72.9866 63.0029 73.0013 63.0706C73.0272 63.1894 72.8338 64.1076 72.7387 64.318C72.7042 64.3943 72.5758 64.7691 72.4534 65.1508C72.331 65.5325 72.1897 65.9697 72.1393 66.1224C71.7586 67.2755 71.775 69.139 72.1777 70.4945C72.4188 71.3058 72.559 71.7325 72.7138 72.1253C72.9665 72.7669 73.7097 74.2369 74.0297 74.7278L74.3011 75.1442L74.3496 74.3114C74.4091 73.2921 74.5249 72.3746 74.6319 72.0733C74.7222 71.8194 74.8615 71.7783 74.9277 71.9862C75.0027 72.2219 75.7557 73.5227 76.1129 74.0338C76.5349 74.6376 77.5819 75.6785 78.1726 76.0816C78.4172 76.2485 78.7564 76.479 78.9264 76.5939C79.3377 76.8717 81.4506 78.0936 81.5197 78.0936C81.5496 78.0936 81.512 77.9284 81.4362 77.7264C80.9441 76.4151 80.8883 74.604 81.308 73.5632C81.3796 73.3858 81.3927 73.3802 81.4701 73.4938C81.5165 73.5618 81.5925 73.7736 81.6392 73.9644C81.7703 74.5013 82.2486 75.6486 82.5591 76.1714C83.1047 77.0897 83.9412 77.8421 84.7959 78.1832C85.4016 78.4249 85.4805 78.4325 85.5478 78.2557C85.599 78.1208 85.5432 78.0712 85.0001 77.7699C83.9003 77.1595 83.3335 76.4424 82.7609 74.936C82.6738 74.707 82.5586 74.4103 82.5048 74.2767C82.3837 73.9759 82.1735 73.2388 81.8221 71.8824C81.648 71.2104 81.4131 70.561 81.2509 70.3036C81.0363 69.963 80.8421 69.9566 80.7797 70.2881C80.7223 70.5932 80.4841 71.3246 80.0401 72.5596C79.5054 74.0467 79.3769 74.7883 79.5171 75.5779C79.5458 75.7401 79.549 75.8729 79.5242 75.8729C79.4134 75.8729 78.6457 75.4754 78.2219 75.1987C77.3936 74.6579 76.4488 73.6314 75.9362 72.7152C75.7346 72.355 75.5148 71.6773 75.1637 70.3328C74.8127 68.9893 74.8177 69.0418 75.0379 69.0163L74.5495 68.0371C74.4799 67.8636 74.1052 66.9764 73.9734 66.8675C73.879 66.7896 73.8628 66.9439 73.8272 68.2555C73.7992 69.2883 73.7451 69.9575 73.6471 70.4856C73.57 70.9005 73.4921 71.2549 73.474 71.2729C73.4087 71.338 73.0149 70.8329 72.8092 70.4201C72.4593 69.7182 72.3582 69.2158 72.3629 68.2043C72.3676 67.2034 72.5183 66.3356 72.8508 65.3937C72.9938 64.9887 73.9692 62.507 74.0919 62.236C74.4018 61.5519 75.1714 59.0005 75.1714 58.6575C75.1714 58.4974 75.0194 58.6315 74.6254 59.1392C74.0868 59.8333 73.0279 60.8733 72.4557 61.2703C72.2128 61.4388 71.9864 61.5767 71.9525 61.5767C71.8335 61.5767 72.1495 59.8831 72.3927 59.2172C72.9154 57.7863 73.25 57.3033 74.7487 55.8166C75.9161 54.6586 76.8105 53.5864 77.4985 52.5202C78.0873 51.6078 78.2207 51.3916 78.474 50.938L78.7376 50.4661L78.3409 50.6801C77.3867 51.1948 75.2978 52.2182 75.2661 52.1866C75.204 52.1247 75.5052 51.6107 75.9303 51.0529C76.4737 50.3398 77.138 49.6624 77.9433 48.9998C80.5512 46.8541 82.4674 44.5117 83.3802 42.3533C83.5013 42.067 83.6276 41.7832 83.6608 41.7225C83.7398 41.5785 84.1518 40.2049 84.1518 40.0857C84.1518 39.9046 84.0224 40.0009 83.6396 40.4674Z" fill="#983031"/>
</g>
<defs>
<filter id="filter0_d_2231_21979" x="0" y="0" width="164.629" height="169.091" filterUnits="userSpaceOnUse" color-interpolation-filters="sRGB">
<feFlood flood-opacity="0" result="BackgroundImageFix"/>
<feColorMatrix in="SourceAlpha" type="matrix" values="0 0 0 0 0 0 0 0 0 0 0 0 0 0 0 0 0 0 127 0" result="hardAlpha"/>
<feOffset dy="20"/>
<feGaussianBlur stdDeviation="25"/>
<feColorMatrix type="matrix" values="0 0 0 0 0.216667 0 0 0 0 0.123809 0 0 0 0 0.0541667 0 0 0 0.1 0"/>
<feBlend mode="normal" in2="BackgroundImageFix" result="effect1_dropShadow_2231_21979"/>
<feBlend mode="normal" in="SourceGraphic" in2="effect1_dropShadow_2231_21979" result="shape"/>
</filter>
</defs>
</svg>
