<svg width="45" height="50" viewBox="0 0 45 50" fill="none" xmlns="http://www.w3.org/2000/svg">
<path fill-rule="evenodd" clip-rule="evenodd" d="M14.5495 28.0371L15.0379 29.0163C15.2309 28.9939 15.2363 28.9841 16.0449 27.198C16.2437 26.7591 16.523 26.1501 16.6658 25.8448C17.1076 24.9 17.4577 24.1142 17.4811 24.0149C17.4935 23.9627 17.4458 23.9104 17.3753 23.8987C17.3048 23.8869 17.2301 23.8603 17.2092 23.8395C17.1768 23.8071 17.3032 23.4573 17.538 22.93C17.7966 22.3492 18.0257 21.7853 18.0257 21.7298C18.0257 21.6931 18.0665 21.6293 18.1164 21.588C18.1863 21.5302 18.2731 21.604 18.4944 21.9092C18.6523 22.1271 19.2785 22.9925 19.886 23.8322C22.5178 27.4706 22.9811 28.1001 23.0256 28.099C23.0515 28.0983 23.3334 27.7157 23.6521 27.2488C23.9708 26.782 24.5045 26.0096 24.8382 25.5325C25.4305 24.6857 25.74 24.2425 26.68 22.8953C26.933 22.5327 27.2858 22.0227 27.4641 21.7619C27.6423 21.5012 27.8118 21.3138 27.8408 21.3455C27.8697 21.3773 28.0413 21.8248 28.2221 22.3401C28.6413 23.5347 28.7094 23.7089 28.6509 23.781C28.6362 23.7991 28.6135 23.8107 28.5865 23.8305C28.5212 23.878 28.4679 23.9392 28.4679 23.9665C28.4679 23.9937 28.8595 24.8133 29.3381 25.7877C29.8167 26.7621 30.2083 27.5874 30.2083 27.6216C30.2083 27.6559 30.1143 27.6838 29.9994 27.6838C29.8846 27.6838 29.7906 27.7107 29.7906 27.7436C29.7906 27.7765 30.4182 28.846 31.1853 30.1205C32.267 31.9174 32.5498 32.3352 32.4986 32.7073C32.4765 32.8679 32.3923 33.0199 32.2833 33.2704C31.6148 34.8065 30.6132 35.9418 29.4087 36.5288C28.5459 36.9493 27.9633 37.0762 27.0636 37.0394C26.4187 37.013 26.2986 36.9864 25.8983 36.7818C24.719 36.1788 23.9076 34.897 23.383 32.8082C23.3043 32.4948 23.2957 32.4867 23.1105 32.5511L22.9192 32.6176L23.1123 33.3604C23.3504 34.2767 23.4422 34.5322 23.7567 35.1548C24.1904 36.0134 24.8439 36.729 25.5973 37.1706C26.3246 37.5969 27.5591 37.7197 28.5723 37.4666C29.8895 37.1375 31.0821 36.3572 31.8433 35.3263C32.1755 34.8765 32.7228 33.8965 32.817 33.5827C32.8457 33.4873 32.9104 33.3155 32.9608 33.201C33.275 32.488 33.6051 30.628 33.6628 29.2453C33.6956 28.4567 33.6752 28.0842 33.5542 27.2674C33.5049 26.9339 33.4715 26.7066 33.4315 26.4804C33.3406 25.9668 33.2155 25.4592 32.7908 23.7281C32.3784 22.047 32.3086 21.7066 32.132 20.516C32.0589 20.023 32.0583 19.794 32.1287 19.3194C32.3013 18.1554 32.3794 16.0042 32.2999 14.6022C32.2209 13.2086 32.219 13.1915 32.0156 12.1C31.7527 10.6885 31.3485 9.39601 30.8016 8.21748C30.6599 7.91213 30.5159 7.59983 30.4817 7.52349C30.4475 7.44715 30.3415 7.25978 30.2461 7.1071C30.1507 6.95442 30.0207 6.73582 29.9572 6.62131C29.8937 6.5068 29.6736 6.16862 29.4681 5.86972C29.2626 5.57089 29.0944 5.31606 29.0944 5.3035C29.0944 5.18954 30.9751 5.88298 31.9138 6.34302C33.469 7.10509 34.592 7.91546 36.0577 9.33307L36.6512 9.90713L37.1223 9.48741C37.3813 9.25652 37.6046 9.07934 37.6184 9.09364C37.9058 9.39157 39.6063 13.7523 39.6063 14.1913C39.6063 14.3561 39.6881 14.3091 40.2903 13.7978C40.6091 13.5272 40.8806 13.3163 40.8936 13.3293C40.9066 13.3424 40.9796 13.6028 41.0559 13.9082C41.3266 14.9914 41.3815 15.6377 41.3815 17.7425C41.3815 18.8589 41.3855 19.7724 41.3904 19.7724C41.4307 19.7723 42.2713 19.4143 42.613 19.2517C42.7159 19.2027 42.8132 19.1756 42.8292 19.1915C42.8625 19.2247 42.8378 20.1391 42.7723 21.2991C42.7268 22.1056 42.4544 23.8621 42.1723 25.1677C42.0878 25.5587 42.0332 25.893 42.0508 25.9105C42.0684 25.9281 42.4044 25.8779 42.7974 25.799C43.1905 25.72 43.5258 25.6692 43.5427 25.686C43.5919 25.735 43.1814 26.8128 42.7552 27.7532C42.3725 28.5977 41.7819 29.7249 41.428 30.2863C41.3317 30.439 41.1751 30.6888 41.08 30.8415C40.985 30.9941 40.8495 31.2037 40.7789 31.3071C40.7083 31.4105 40.6504 31.5198 40.6504 31.55C40.6503 31.5801 41.0447 31.5952 41.5269 31.5835L42.4036 31.562L42.2754 31.7795C41.7259 32.7117 39.6242 34.8644 37.9644 36.1952C37.604 36.4843 37.3091 36.7408 37.3091 36.7653C37.3092 36.7898 37.6303 36.8846 38.0227 36.976C38.6868 37.1308 38.9569 37.1866 38.9663 37.271C38.9731 37.3326 38.8414 37.4093 38.6228 37.5507C36.9448 38.636 34.9541 39.6739 33.4287 40.2589L32.4374 40.6391L33.1502 41.1153C33.5423 41.3772 33.8754 41.6001 33.8904 41.6105C33.9528 41.6541 33.7244 41.8471 33.3875 42.0357C32.7326 42.4022 31.734 42.673 28.6071 43.3322C25.9244 43.8978 24.7847 44.2266 23.7515 44.7332L23.2468 44.9806V47.0155C23.2468 48.1556 23.2745 49.0675 23.3098 49.0893C23.3444 49.1106 23.4717 48.9173 23.5925 48.6597C24.1867 47.3922 25.221 46.1419 26.5883 45.0382C27.8513 44.0186 27.9372 43.9815 30.626 43.2936C31.7262 43.0122 32.1243 42.9107 32.5192 42.7981C32.7628 42.7286 33.0052 42.6548 33.4106 42.532C34.1164 42.3179 35.3979 41.7525 35.6626 41.5382C35.833 41.4003 35.7871 41.3423 35.2092 40.9663C34.9398 40.791 34.746 40.6237 34.7785 40.5946C34.8111 40.5655 35.2292 40.3398 35.7079 40.0931C37.6217 39.1069 38.8976 38.2233 40.1457 37.0202C40.5747 36.6066 40.7753 36.4277 40.7413 36.3293C40.7116 36.2433 40.5028 36.2188 40.111 36.1531C39.8334 36.1066 39.6063 36.0516 39.6063 36.0308C39.6063 36.01 39.8663 35.7084 40.1842 35.3604C41.3533 34.0804 42.4512 32.5877 43.3229 31.0925C43.5761 30.6583 43.7832 30.2885 43.7832 30.2708C43.7832 30.253 43.4699 30.2493 43.087 30.2624C42.704 30.2755 42.3907 30.265 42.3908 30.2389C42.3909 30.2129 42.5928 29.7894 42.8397 29.2978C43.7223 27.5398 44.3445 25.7103 44.5835 24.1698L44.6281 23.8829L44.223 23.984C43.3791 24.1945 43.2153 24.226 43.1745 24.1855C43.1515 24.1625 43.1692 23.9019 43.2139 23.6062C43.4691 21.9164 43.6262 17.9907 43.4595 17.4715L43.4003 17.2873L42.818 17.6313C42.4977 17.8205 42.2268 17.9658 42.2159 17.9543C42.2049 17.9427 42.163 17.5898 42.1226 17.1699C42.0129 16.0278 41.8377 14.5444 41.801 14.4458C41.7831 14.398 41.7194 14.0701 41.6593 13.7171C41.5992 13.3642 41.5023 12.9192 41.444 12.7284C41.2291 12.0242 40.9829 11.3751 40.9309 11.3751C40.9014 11.3751 40.637 11.5664 40.3432 11.8001C40.0495 12.0339 39.8004 12.2135 39.7896 12.1992C39.7788 12.1849 39.7001 12.0014 39.6148 11.7915C39.5294 11.5816 39.432 11.3474 39.3981 11.271C39.3644 11.1947 39.1738 10.7575 38.9748 10.2994C38.6368 9.5219 38.3152 8.88329 37.925 8.21512C37.7006 7.831 37.2134 7.1436 37.1647 7.14263C37.1428 7.14215 36.8955 7.40808 36.6153 7.73349C36.1679 8.25308 36.0921 8.31381 35.9938 8.23164C34.9335 7.34493 34.163 6.79911 33.2204 6.26696C31.2267 5.14138 29.0121 4.43504 26.1706 4.01823C25.0695 3.85674 24.9166 3.85043 24.9205 3.96681C24.9221 4.01455 25.2117 4.25655 25.5642 4.50465C26.3049 5.02597 27.0934 5.7099 27.8529 6.4898C29.8718 8.56302 31.1534 11.093 31.6107 13.9082C31.7327 14.6593 31.7257 17.3235 31.5997 18.1415C31.4229 19.2885 31.5031 21.2739 31.7735 22.4438C32.1654 24.1396 32.2512 24.4823 32.3328 24.6777C32.474 25.0162 32.6865 25.8297 32.8641 26.7122C33.0046 27.4104 33.0241 27.7059 33.02 29.0718C33.0166 30.1951 32.9861 30.7593 32.9113 31.0823C32.8083 31.5277 32.8065 31.53 32.6992 31.3599C32.5435 31.1131 31.83 29.874 31.5564 29.3756L31.3232 28.9506L31.8749 28.8626L31.6681 28.5131C31.5543 28.3208 31.4613 28.1491 31.4613 28.1315C31.4613 28.114 31.2466 27.7171 30.9843 27.2497C30.7219 26.7823 30.3734 26.1501 30.2097 25.8448C30.0461 25.5394 29.8827 25.2525 29.8466 25.2071C29.8005 25.1496 29.8452 25.0915 29.9945 25.0145C30.1121 24.9539 30.2083 24.8891 30.2083 24.8705C30.2083 24.8518 29.7697 23.9452 29.2337 22.8557C28.6976 21.7663 28.2591 20.8588 28.2591 20.8392C28.2591 20.7819 29.1657 19.5019 29.2378 19.4576C29.3336 19.3984 29.3127 19.0506 29.1739 18.3961C29.0826 17.9652 29.0326 17.8413 28.978 17.9103C28.9377 17.9611 28.7912 18.1657 28.6524 18.3649C28.5138 18.5641 28.2525 18.9389 28.0719 19.1977C26.6938 21.1725 24.0819 25.2184 23.2998 26.59C23.1749 26.809 23.0535 26.9886 23.03 26.989C23.0065 26.9895 22.9094 26.8727 22.8141 26.7296C22.5776 26.3742 21.9395 25.3832 21.6065 24.8541C20.9928 23.8791 20.7761 23.5393 19.1402 20.9868C18.7243 20.338 18.1421 19.4245 17.8465 18.957L17.3088 18.1069L17.0097 18.7691C16.8451 19.1333 16.6932 19.4855 16.6721 19.552C16.646 19.6338 16.801 19.8727 17.1541 20.295C17.4403 20.6374 17.6752 20.9532 17.6761 20.9969C17.6811 21.2561 16.6412 23.4517 15.9441 24.6537C15.7485 24.991 15.6061 25.2955 15.6277 25.3303C15.6493 25.3651 15.777 25.3937 15.9116 25.3937C16.073 25.3937 16.1486 25.4232 16.1337 25.4804C16.1213 25.5282 15.7878 26.1687 15.3924 26.9039C14.738 28.1209 14.5495 28.0371 14.5495 28.0371ZM23.1772 9.14076C23.1772 9.04645 23.213 8.79127 23.2569 8.57364C23.303 8.34462 23.3689 8.18868 23.4132 8.20339C23.4553 8.21741 23.5213 8.46052 23.5598 8.74366L23.6297 9.25846L24.0299 9.25041C24.2501 9.24597 24.4286 9.26159 24.4268 9.28511C24.4248 9.30864 24.1858 9.50545 23.8956 9.72246L23.368 10.1171L22.8599 9.72517C22.5804 9.50962 22.367 9.30864 22.3857 9.27845C22.4044 9.24826 22.5902 9.24347 22.7985 9.2679C23.1668 9.31107 23.1772 9.3076 23.1772 9.14076ZM19.7962 11.4726C19.7044 10.8626 20.1302 10.1682 20.7754 9.87549C21.5073 9.54341 22.3321 9.73065 23.0553 10.393L23.2468 10.5683L23.246 13.2142L22.3936 13.2197C21.9248 13.2228 21.4197 13.2604 21.2711 13.3034L21.001 13.3815L20.6351 13.0079C20.2212 12.5853 19.8657 11.9347 19.7962 11.4726ZM23.7811 10.3892C24.005 10.1544 24.2581 10.0036 24.7087 9.83648C25.1303 9.68013 25.438 9.6829 25.8884 9.84696C26.3253 10.0062 26.6739 10.3159 26.8806 10.7285C27.1877 11.3416 26.8713 12.3416 26.1426 13.0613C25.8796 13.3211 25.7679 13.3882 25.6553 13.3543C25.3132 13.2512 24.3618 13.1744 23.9495 13.2165L23.5035 13.2623L23.5843 10.5956L23.7811 10.3892ZM21.1237 13.5378C21.1491 13.5125 21.363 13.471 21.5991 13.4456C22.1225 13.3894 25.2387 13.4296 25.4571 13.4954C25.5965 13.5374 25.6137 13.5878 25.6137 13.9529V14.3632L24.7609 14.3092C23.6825 14.2409 23.0199 14.2411 21.9177 14.31L21.0411 14.3647L21.0594 13.9742C21.0694 13.7595 21.0984 13.5631 21.1237 13.5378ZM20.5318 16.5804C21.2143 15.8984 21.8292 15.538 22.5854 15.3767C22.9058 15.3084 23.047 15.2752 23.1881 15.2757C23.3223 15.2762 23.4564 15.3073 23.7445 15.3677C24.3696 15.4988 24.9039 15.7538 25.4048 16.1603C25.8965 16.5591 26.0371 16.7089 26.7276 17.569C26.7506 17.5977 27.143 17.1868 27.5995 16.656L28.4295 15.6909L28.5837 16.361C28.6686 16.7296 28.7399 17.0674 28.7422 17.1118C28.7445 17.1562 28.5506 17.4416 28.3113 17.7461C27.8984 18.2713 27.2105 19.2009 26.3241 20.4317C26.1042 20.737 25.7249 21.2991 25.4813 21.6808C25.2378 22.0625 24.9884 22.4529 24.9272 22.5483C24.3698 23.4175 23.2359 25.5871 23.1401 25.9679C23.0711 26.2417 22.9939 26.2033 22.7876 25.7927C22.5233 25.2667 20.1897 21.1937 19.6339 20.2883C19.0963 19.4124 18.5045 18.5462 18.0145 17.9174C17.6685 17.4736 17.6286 17.3603 17.7444 17.1516C17.8663 16.9319 18.2345 16.0375 18.2345 15.9611C18.2345 15.8306 18.3656 15.8798 18.4504 16.0422C18.6025 16.3332 19.5085 17.6904 19.5504 17.6899C19.5733 17.6896 19.6703 17.5729 19.766 17.4305C19.8618 17.2881 20.2063 16.9055 20.5318 16.5804ZM25.5693 16.9982C25.1505 16.5471 24.712 16.2428 24.184 16.0366C23.3834 15.724 22.4809 15.8227 21.6533 16.3133C20.9147 16.7512 19.6896 18.2921 19.885 18.5375C20.1088 18.8183 22.6463 23.8643 22.9052 24.5434C22.9858 24.7544 23.0823 24.7403 23.1403 24.5088C23.2822 23.9424 25.3299 20.046 26.1473 18.7871C26.3132 18.5315 26.4491 18.3014 26.4491 18.2757C26.4491 18.1502 25.9037 17.3582 25.5693 16.9982Z" fill="#2B323C"/>
<path d="M23.6396 0.467378C22.763 1.53549 21.2923 2.7186 19.766 3.58338C18.8129 4.12351 18.5466 4.25134 16.3897 5.2044C15.5857 5.55972 14.4124 6.10977 13.7825 6.42672C13.1525 6.74366 12.6043 7.003 12.5642 7.00307C12.5149 7.00307 12.4977 6.47377 12.5112 5.36658C12.531 3.73564 12.4958 3.50482 12.3138 4.07188C12.2264 4.3442 11.7432 5.31863 11.5486 5.61503C10.9968 6.45566 10.7146 6.80424 9.97616 7.55819C9.03928 8.51472 8.3936 9.24916 7.56644 10.2993C7.26577 10.6811 6.98209 11.041 6.93607 11.0992C6.89013 11.1573 6.68184 11.4306 6.47334 11.7064C6.26485 11.9822 6.06902 12.2079 6.03825 12.2079C6.00748 12.2079 5.98228 12.0928 5.98228 11.9521C5.98228 11.6628 5.75568 10.8029 5.55589 10.3341C5.40573 9.9818 5.08327 9.35631 5.00857 9.27248C4.98142 9.24201 4.94 9.46062 4.91647 9.75827C4.80593 11.1594 4.4481 12.553 3.82429 14.0123C3.19288 15.4894 2.58159 17.5949 2.36369 19.0437C2.31775 19.349 2.2489 19.7706 2.21068 19.9806C2.17246 20.1905 2.12401 21.0571 2.10299 21.9064C2.08196 22.7557 2.04555 23.4492 2.02209 23.4477C1.99863 23.4462 1.86191 23.2978 1.71823 23.1181C1.57461 22.9383 1.36221 22.6844 1.24631 22.5539C1.1304 22.4234 0.825344 22.0721 0.568395 21.7732C0.311516 21.4743 0.077471 21.2297 0.048372 21.2297C-0.0382986 21.2297 -0.0137943 21.4672 0.165046 22.3604C0.25833 22.8263 0.38503 23.4731 0.4465 23.7975C0.620328 24.7147 0.969169 26.2973 1.07373 26.6428C1.64402 28.5274 2.00392 29.4096 2.79962 30.8734C3.36615 31.9155 5.0156 34.3582 5.42578 34.7625C5.55331 34.8882 5.85147 35.3324 5.82557 35.3582C5.80824 35.3755 5.27074 35.2857 4.63105 35.1586C3.99136 35.0316 3.45338 34.9513 3.43549 34.9801C3.41759 35.0089 3.58968 35.1589 3.81795 35.3134C4.30637 35.6441 4.78351 36.0398 6.30905 37.3796C7.49139 38.4179 8.70916 39.3928 9.03002 39.5577C9.13416 39.6113 9.26058 39.694 9.31099 39.7414C9.53153 39.9494 11.0436 40.7488 11.7995 41.0571C12.2501 41.2409 12.9999 41.4935 13.2453 41.5444C13.3885 41.574 13.5061 41.6295 13.5067 41.6677C13.5079 41.7432 13.3988 41.774 12.3388 41.9965C11.9487 42.0784 11.6439 42.1689 11.6617 42.1975C11.6984 42.2566 12.9665 42.6546 13.8488 42.8838C14.1742 42.9683 14.6441 43.0934 14.893 43.1617C15.1419 43.23 15.4551 43.3074 15.5891 43.3337C16.7716 43.5663 19.121 44.4821 20.1359 45.1062C21.1038 45.7013 21.9952 46.6244 22.4113 47.4625C22.5345 47.7106 22.6619 47.9658 22.6947 48.0297C22.7273 48.0936 22.7921 48.3513 22.8384 48.6023C22.8848 48.8533 22.9487 49.0586 22.9804 49.0586C23.012 49.0586 23.0379 48.1408 23.0379 47.0189V44.9792L22.8489 44.9318C22.7449 44.9058 22.5274 44.8244 22.3655 44.7508C22.2035 44.6773 22.0349 44.6171 21.9906 44.6171C21.9464 44.6171 21.8116 44.573 21.691 44.519C21.3975 44.3878 20.131 43.9925 20.0041 43.9925C19.9487 43.9925 19.8489 43.9617 19.7825 43.924C19.6627 43.8562 19.0202 43.6875 17.893 43.428C17.5711 43.354 17.2822 43.2776 17.251 43.2584C17.2197 43.2391 16.9505 43.1775 16.6527 43.1215C16.3549 43.0655 15.9076 42.976 15.6588 42.9228C15.4099 42.8695 15.0363 42.7915 14.8287 42.7495C14.2221 42.6265 14.2319 42.6098 15.0322 42.4035C15.3577 42.3195 15.7962 42.2062 16.0068 42.1516C16.2174 42.0969 16.5123 42.0086 16.6622 41.9552C16.9044 41.8689 16.9198 41.8505 16.8014 41.7883C16.7281 41.7499 16.5272 41.6969 16.3549 41.6705C15.4635 41.5339 13.4563 41.0751 13.2829 40.9682C13.2485 40.947 13.0251 40.8729 12.7862 40.8034C11.8042 40.5179 10.2075 39.7698 9.25418 39.1486C8.3283 38.5453 6.97979 37.3342 7.16518 37.2726C7.2318 37.2504 8.8399 37.4398 9.16716 37.5083C9.46247 37.5701 9.33034 37.3618 8.85389 37.0143C7.84086 36.2756 6.35548 34.9258 5.49428 33.9614C5.3224 33.7688 5.07206 33.4881 4.93805 33.3375C4.30846 32.6299 3.38669 31.2456 2.90641 30.2863C2.49039 29.4554 2.04827 28.2852 1.87152 27.5477C1.69637 26.8167 1.51404 25.661 1.5657 25.6095C1.58888 25.5864 2.14733 26.1217 2.80672 26.7991C3.46612 27.4765 4.04315 28.0308 4.08896 28.0308C4.18614 28.0308 4.20055 27.9176 4.1104 27.862C4.07636 27.8411 4.02693 27.7377 4.00062 27.6324C3.97424 27.5271 3.91005 27.3472 3.85798 27.2327C3.73323 26.9586 3.45505 26.1132 3.27558 25.4631C3.15313 25.0193 3.09514 24.7649 2.94352 24.0057C2.70432 22.8077 2.64069 20.2775 2.81612 18.9396C2.95424 17.8866 3.2996 16.4298 3.54833 15.8513C3.58119 15.775 3.69271 15.4939 3.79623 15.2268C4.07566 14.5054 4.58288 13.4571 4.65249 13.4571C4.80711 13.4571 5.2122 14.7532 5.21637 15.2615C5.22062 15.7699 5.37983 16.0014 5.46699 15.6258C5.85119 13.9709 6.79183 11.98 7.85784 10.5652C8.26669 10.0227 9.73731 8.52159 10.1604 8.21512C10.3166 8.10186 10.5568 7.92337 10.6942 7.81844C11.1015 7.50732 11.146 7.54563 11.0977 8.16543C11.0611 8.6354 10.9151 9.50101 10.811 9.8657C10.7433 10.1026 10.8929 9.98243 11.0627 9.66333C11.4129 9.00536 12.1889 8.26433 13.2346 7.58949C13.976 7.11099 15.7092 6.12684 16.6334 5.65958C18.2408 4.84685 20.4034 3.72669 21.2219 3.28281C21.3909 3.19121 21.5401 3.12708 21.5535 3.14041C21.6308 3.21758 20.9587 4.45489 20.2659 5.51093C19.5056 6.66975 18.8313 7.45652 17.2921 8.98087C15.39 10.8646 14.6168 11.886 13.2358 14.339L12.9541 14.8392L13.6277 14.5018C14.9932 13.8178 15.9435 13.3782 16.0095 13.4002C16.1999 13.4634 15.571 14.295 14.3398 15.6084C12.6733 17.3862 12.3511 17.8304 11.9297 18.9304C11.6868 19.5644 11.3499 20.7815 11.1395 21.7849C11.0714 22.1094 10.9965 22.4373 10.973 22.5136C10.9363 22.6326 10.5769 25.0245 10.5769 25.1496C10.5769 25.1741 11.1172 24.6928 11.7777 24.0801C12.5554 23.3586 12.9866 23.0029 13.0013 23.0706C13.0272 23.1894 12.8338 24.1076 12.7387 24.318C12.7042 24.3943 12.5758 24.7691 12.4534 25.1508C12.331 25.5325 12.1897 25.9697 12.1393 26.1224C11.7586 27.2755 11.775 29.139 12.1777 30.4945C12.4188 31.3058 12.559 31.7325 12.7138 32.1253C12.9665 32.7669 13.7097 34.2369 14.0297 34.7278L14.3011 35.1442L14.3496 34.3114C14.4091 33.2921 14.5249 32.3745 14.6319 32.0733C14.7222 31.8194 14.8615 31.7783 14.9277 31.9862C15.0027 32.2219 15.7557 33.5227 16.1129 34.0338C16.5349 34.6376 17.5819 35.6785 18.1726 36.0816C18.4172 36.2485 18.7564 36.479 18.9264 36.5939C19.3377 36.8717 21.4506 38.0936 21.5197 38.0936C21.5496 38.0936 21.512 37.9284 21.4362 37.7264C20.9441 36.4151 20.8883 34.604 21.308 33.5632C21.3796 33.3858 21.3927 33.3802 21.4701 33.4938C21.5165 33.5618 21.5925 33.7736 21.6392 33.9644C21.7703 34.5013 22.2486 35.6486 22.5591 36.1714C23.1047 37.0897 23.9412 37.8421 24.7959 38.1832C25.4016 38.4249 25.4805 38.4325 25.5478 38.2557C25.599 38.1208 25.5432 38.0712 25.0001 37.7699C23.9003 37.1595 23.3335 36.4424 22.7609 34.936C22.6738 34.707 22.5586 34.4103 22.5048 34.2767C22.3837 33.9759 22.1735 33.2388 21.8221 31.8824C21.648 31.2104 21.4131 30.561 21.2509 30.3036C21.0363 29.963 20.8421 29.9566 20.7797 30.2881C20.7223 30.5932 20.4841 31.3246 20.0401 32.5596C19.5054 34.0467 19.3769 34.7883 19.5171 35.5779C19.5458 35.7401 19.549 35.8729 19.5242 35.8729C19.4134 35.8729 18.6457 35.4754 18.2219 35.1987C17.3936 34.6579 16.4488 33.6314 15.9362 32.7152C15.7346 32.355 15.5148 31.6773 15.1637 30.3328C14.8127 28.9893 14.8177 29.0418 15.0379 29.0163L14.5495 28.0371C14.4799 27.8636 14.1052 26.9764 13.9734 26.8675C13.879 26.7896 13.8628 26.9439 13.8272 28.2555C13.7992 29.2883 13.7451 29.9575 13.6471 30.4856C13.57 30.9005 13.4921 31.2549 13.474 31.2729C13.4087 31.338 13.0149 30.8329 12.8092 30.4201C12.4593 29.7182 12.3582 29.2158 12.3629 28.2043C12.3676 27.2034 12.5183 26.3356 12.8508 25.3937C12.9938 24.9887 13.9692 22.507 14.0919 22.236C14.4018 21.5519 15.1714 19.0005 15.1714 18.6575C15.1714 18.4974 15.0194 18.6315 14.6254 19.1392C14.0868 19.8333 13.0279 20.8733 12.4557 21.2703C12.2128 21.4388 11.9864 21.5767 11.9525 21.5767C11.8335 21.5767 12.1495 19.8831 12.3927 19.2172C12.9154 17.7863 13.25 17.3033 14.7487 15.8166C15.9161 14.6586 16.8105 13.5864 17.4985 12.5202C18.0873 11.6078 18.2207 11.3916 18.4741 10.938L18.7376 10.4661L18.3409 10.6801C17.3867 11.1948 15.2978 12.2182 15.2661 12.1866C15.204 12.1247 15.5052 11.6107 15.9303 11.0529C16.4737 10.3398 17.138 9.66236 17.9433 8.99981C20.5512 6.85414 22.4674 4.51173 23.3802 2.35329C23.5013 2.06702 23.6276 1.78318 23.6608 1.72252C23.7398 1.57845 24.1518 0.204912 24.1518 0.0856851C24.1518 -0.0954456 24.0224 0.000949208 23.6396 0.467378Z" fill="#983031"/>
</svg>
