<svg width="16" height="16" viewBox="0 0 16 16" fill="none" xmlns="http://www.w3.org/2000/svg">
<path fill-rule="evenodd" clip-rule="evenodd" d="M7.14214 5.25318C7.53072 4.72953 7.67006 4.17764 7.23059 3.69049C6.24437 2.3105 5.58112 1.45713 5.16509 1.04616C4.37417 0.264859 3.07309 0.370542 2.3881 1.04549C2.02018 1.40801 1.89563 1.5325 1.51786 1.91621C-0.586382 4.02158 0.696891 8.47226 4.1083 11.887C7.51893 15.301 11.9692 16.585 14.0778 14.4751C14.4264 14.1391 14.7216 13.8438 14.9544 13.5977C15.6256 12.8882 15.7275 11.6445 14.9499 10.8366C14.5513 10.4223 13.7375 9.7911 12.2995 8.76246C11.859 8.36863 11.3368 8.45398 10.858 8.76809C10.6277 8.91918 10.4601 9.07202 10.1437 9.3888L9.56898 9.9638C9.49329 10.0395 8.46549 9.52481 7.46779 8.52613C6.46954 7.5269 5.95518 6.49905 6.03052 6.42372L6.6056 5.84832C6.706 5.74782 6.754 5.69916 6.81557 5.63446C6.94382 5.49966 7.05001 5.37733 7.14214 5.25318ZM10.6286 11.0243L11.2034 10.4492C11.3775 10.2749 11.4904 10.1677 11.5822 10.0938C12.842 10.9984 13.5716 11.5672 13.8696 11.8769C14.0485 12.0628 14.0207 12.402 13.8651 12.5664C13.6499 12.7939 13.3703 13.0737 13.0271 13.4047C11.6635 14.7688 8.0712 13.7324 5.16812 10.8264C2.26413 7.9196 1.22818 4.32671 2.58142 2.97273C2.95767 2.5906 3.07687 2.47145 3.43954 2.1141C3.57552 1.98012 3.94591 1.95003 4.11133 2.11344C4.43163 2.42984 5.02578 3.19061 5.8998 4.40811C5.85456 4.46429 5.79804 4.52777 5.72927 4.60005C5.67879 4.6531 5.63674 4.69572 5.54481 4.78775L4.97029 5.36258C3.99293 6.33986 4.82529 8.00315 6.407 9.58642C7.98763 11.1686 9.65154 12.0019 10.6286 11.0243Z" fill="#BF9D77"/>
</svg>
