<svg width="42" height="42" viewBox="0 0 42 42" fill="#ccc" xmlns="http://www.w3.org/2000/svg">
<g opacity="0.9">
<rect width="42" height="42" fill="white"/>
<mask id="path-1-inside-1_2231_21997" fill="#7294C7">
<path d="M31.1376 25.7671C31.1376 25.6849 31.0555 25.6849 31.0555 25.6027C30.7267 24.9452 29.987 24.1233 29.0007 23.2192C28.5075 22.8082 28.2609 22.4795 28.0965 22.3151C27.85 21.9863 27.85 21.7397 27.9322 21.411C28.0144 21.1644 28.3431 20.7534 28.9185 20.0137C29.2472 19.6027 29.4116 19.3562 29.6582 19.1096C30.8911 17.4658 31.4664 16.3973 31.302 15.9041L31.2198 15.8219C31.1377 15.7397 31.0554 15.6575 30.8911 15.6575C30.7267 15.5753 30.4801 15.5753 30.2335 15.6575H27.1103C27.0281 15.6575 27.028 15.6575 26.8637 15.6575C26.7815 15.6575 26.6993 15.6575 26.6993 15.6575H26.6171H26.5349L26.4527 15.7397C26.3705 15.8219 26.3705 15.8219 26.3705 15.9041C26.0417 16.8082 25.6308 17.5479 25.2198 18.3699C24.9733 18.7808 24.7267 19.1918 24.4801 19.5206C24.2335 19.8493 24.0691 20.0959 23.9048 20.2603C23.7404 20.4247 23.576 20.5068 23.4938 20.6712C23.4116 20.7534 23.2472 20.8356 23.2472 20.7534C23.165 20.7534 23.0828 20.7534 23.0828 20.6712C23.0006 20.589 22.9185 20.5068 22.8363 20.4247C22.7541 20.3425 22.7541 20.1781 22.6719 20.0137C22.6719 19.8493 22.6719 19.6849 22.6719 19.6027C22.6719 19.5205 22.6719 19.274 22.6719 19.1096C22.6719 18.863 22.6719 18.6986 22.6719 18.6164C22.6719 18.3699 22.6719 18.0411 22.6719 17.7123C22.6719 17.3836 22.6719 17.137 22.6719 16.9726C22.6719 16.8082 22.6719 16.5616 22.6719 16.3973C22.6719 16.1507 22.6719 15.9863 22.6719 15.9041C22.6719 15.8219 22.5897 15.6575 22.5897 15.5753C22.5075 15.4931 22.4253 15.411 22.3431 15.3288C22.2609 15.2466 22.0965 15.2466 22.0143 15.1644C21.6034 15.0822 21.1103 15 20.5349 15C19.2198 15 18.3157 15.0822 17.987 15.2466C17.8226 15.3288 17.6582 15.411 17.576 15.5753C17.4116 15.7397 17.4116 15.8219 17.4938 15.8219C17.9048 15.9041 18.2335 16.0685 18.3979 16.3151L18.4801 16.4795C18.5623 16.5616 18.5623 16.726 18.6445 16.9726C18.7267 17.2192 18.7267 17.4657 18.7267 17.7945C18.7267 18.2877 18.7267 18.7808 18.7267 19.1096C18.7267 19.5206 18.6445 19.7671 18.6445 20.0137C18.6445 20.2603 18.5623 20.4247 18.4801 20.5069C18.3979 20.6712 18.3979 20.7534 18.3157 20.7534C18.3157 20.7534 18.3157 20.8356 18.2335 20.8356C18.1513 20.8356 18.0691 20.9178 17.9048 20.9178C17.8226 20.9178 17.6582 20.8356 17.576 20.7534C17.4116 20.6712 17.2472 20.5069 17.165 20.3425C17.0007 20.1781 16.8363 19.9315 16.6719 19.6027C16.5075 19.274 16.2609 18.9452 16.0965 18.4521L15.9322 18.1233C15.85 17.9589 15.6856 17.6301 15.5212 17.2192C15.3568 16.8082 15.1924 16.4795 15.028 16.0685C14.9459 15.9041 14.8637 15.8219 14.7815 15.7397H14.6993C14.6993 15.7397 14.6171 15.6575 14.5349 15.6575C14.4527 15.6575 14.3705 15.5753 14.2883 15.5753H11.3294C11.0006 15.5753 10.8363 15.6575 10.7541 15.7397L10.6719 15.8219C10.6719 15.8219 10.6719 15.9041 10.6719 15.9863C10.6719 16.0685 10.6719 16.1507 10.7541 16.3151C11.165 17.3014 11.6582 18.2877 12.1513 19.274C12.6445 20.1781 13.1376 21 13.4664 21.5753C13.8774 22.1507 14.2061 22.726 14.6171 23.2192C15.028 23.7123 15.2746 24.0411 15.3568 24.2055C15.5212 24.3699 15.6034 24.4521 15.6856 24.5342L15.9322 24.7808C16.0965 24.9452 16.3431 25.1918 16.6719 25.4384C17.0006 25.6849 17.4116 25.9315 17.8226 26.1781C18.2335 26.4247 18.7267 26.5891 19.2198 26.7534C19.7952 26.9178 20.2883 27 20.7815 26.9178H22.0143C22.2609 26.9178 22.4253 26.8356 22.5897 26.6712L22.6719 26.589C22.6719 26.5068 22.7541 26.5069 22.7541 26.4247C22.7541 26.3425 22.7541 26.2603 22.7541 26.0959C22.7541 25.7671 22.7541 25.5206 22.8363 25.274C22.9185 25.0274 22.9185 24.863 23.0007 24.6986C23.0829 24.5343 23.165 24.4521 23.2472 24.3699C23.3294 24.2877 23.4116 24.2055 23.4116 24.2055H23.4938C23.6582 24.1233 23.9048 24.2055 24.0691 24.3699C24.3157 24.5342 24.5623 24.7808 24.7267 25.0274C24.8911 25.274 25.1376 25.5206 25.4664 25.8493C25.7952 26.1781 26.0418 26.4247 26.2061 26.5069L26.4527 26.6712C26.6171 26.7534 26.7815 26.8356 27.0281 26.9178C27.2746 27 27.439 27 27.6034 27L30.3979 26.9178C30.6445 26.9178 30.8911 26.8356 31.0555 26.7534C31.2198 26.6712 31.302 26.589 31.302 26.4247C31.302 26.3425 31.302 26.1781 31.302 26.0959C31.1376 25.9315 31.1376 25.8493 31.1376 25.7671Z"/>
</mask>

</g>
</svg>
