<svg width="99" height="109" viewBox="0 0 99 109" fill="none" xmlns="http://www.w3.org/2000/svg">
<path fill-rule="evenodd" clip-rule="evenodd" d="M32.2757 62.2527L33.3591 64.4269C33.7872 64.3771 33.7993 64.3555 35.593 60.3897C36.0338 59.4151 36.6536 58.0629 36.9703 57.3849C37.9503 55.2871 38.7271 53.5424 38.779 53.322C38.8063 53.2061 38.7007 53.09 38.5442 53.0639C38.3878 53.0379 38.2221 52.9787 38.1758 52.9325C38.1038 52.8607 38.3843 52.0839 38.9051 50.9131C39.4787 49.6235 39.9869 48.3715 39.9869 48.2481C39.9869 48.1667 40.0776 48.0251 40.1883 47.9335C40.3433 47.8051 40.5359 47.9689 41.0267 48.6464C41.3771 49.1304 42.7662 51.0518 44.1137 52.9163C49.9521 60.995 50.9796 62.3927 51.0785 62.3901C51.1359 62.3886 51.7614 61.5392 52.4683 60.5025C53.1752 59.4659 54.3592 57.7509 55.0995 56.6915C56.4132 54.8115 57.1 53.8273 59.1851 50.8361C59.7464 50.0309 60.5291 48.8985 60.9246 48.3195C61.3199 47.7405 61.6959 47.3245 61.7602 47.3949C61.8243 47.4655 62.2049 48.4592 62.606 49.6033C63.536 52.2558 63.687 52.6426 63.5572 52.8026C63.5246 52.8427 63.4744 52.8686 63.4143 52.9124C63.2696 53.018 63.1513 53.1539 63.1513 53.2145C63.1513 53.2749 64.02 55.0947 65.0816 57.2583C66.1433 59.4219 67.012 61.2542 67.012 61.3301C67.012 61.4062 66.8035 61.4683 66.5487 61.4683C66.2939 61.4683 66.0854 61.5281 66.0854 61.601C66.0854 61.674 67.4778 64.0489 69.1794 66.8786C71.5788 70.8685 72.2063 71.7961 72.0927 72.6224C72.0438 72.9788 71.857 73.3164 71.6151 73.8727C70.1321 77.2833 67.9103 79.8041 65.2384 81.1075C63.3244 82.0412 62.032 82.3228 60.0361 82.2412C58.6055 82.1826 58.3391 82.1236 57.4512 81.6692C54.835 80.3303 53.0351 77.4842 51.8713 72.8463C51.6967 72.1505 51.6777 72.1325 51.2667 72.2755L50.8425 72.4231L51.2707 74.0723C51.799 76.107 52.0026 76.6742 52.7003 78.0567C53.6624 79.9631 55.112 81.5521 56.7832 82.5326C58.3967 83.479 61.1352 83.7517 63.3829 83.1898C66.3049 82.4591 68.9504 80.7265 70.6391 78.4374C71.376 77.4388 72.5901 75.2627 72.7991 74.5661C72.8627 74.3542 73.0062 73.9728 73.1181 73.7186C73.8151 72.1354 74.5472 68.0055 74.6752 64.9354C74.7481 63.1844 74.7029 62.3573 74.4345 60.5438C74.325 59.8032 74.2509 59.2985 74.1622 58.7963C73.9606 57.6559 73.683 56.5289 72.7409 52.6852C71.8262 48.9526 71.6713 48.1966 71.2795 45.5531C71.1174 44.4584 71.116 43.9501 71.2721 42.8962C71.6551 40.3118 71.8283 35.5352 71.652 32.4222C71.4767 29.3281 71.4724 29.29 71.0213 26.8665C70.438 23.7324 69.5414 20.8626 68.3282 18.2458C68.0138 17.5679 67.6944 16.8744 67.6186 16.7049C67.5428 16.5354 67.3076 16.1194 67.0959 15.7804C66.8843 15.4414 66.596 14.956 66.455 14.7018C66.3141 14.4475 65.826 13.6966 65.37 13.033C64.9141 12.3694 64.5412 11.8036 64.5412 11.7757C64.5412 11.5227 68.7131 13.0624 70.7955 14.0839C74.2453 15.7759 76.7366 17.5752 79.9881 20.7229L81.3046 21.9975L82.3496 21.0656C82.9242 20.5529 83.4195 20.1595 83.4501 20.1912C84.0877 20.8528 87.8599 30.5352 87.8599 31.51C87.8599 31.876 88.0414 31.7715 89.3774 30.6361C90.0845 30.0353 90.6868 29.5672 90.7157 29.596C90.7444 29.625 90.9065 30.2033 91.0758 30.8813C91.6762 33.2864 91.7979 34.7214 91.7979 39.3948C91.7979 41.8738 91.8068 43.902 91.8176 43.902C91.9071 43.9018 93.7718 43.107 94.5297 42.746C94.7581 42.637 94.974 42.577 95.0094 42.6122C95.0834 42.6859 95.0285 44.7163 94.8832 47.292C94.7822 49.0827 94.1779 52.9827 93.5522 55.8816C93.3649 56.7498 93.2437 57.492 93.2827 57.531C93.3218 57.57 94.0671 57.4586 94.939 57.2832C95.8109 57.1079 96.5548 56.9951 96.5923 57.0324C96.7015 57.1413 95.7906 59.5343 94.8454 61.6224C93.9963 63.4976 92.6862 66.0003 91.901 67.2467C91.6875 67.5857 91.3402 68.1405 91.1292 68.4795C90.9184 68.8185 90.6177 69.2837 90.4612 69.5134C90.3046 69.743 90.1762 69.9857 90.1761 70.0527C90.1759 70.1196 91.0509 70.1531 92.1205 70.127L94.0652 70.0794L93.7809 70.5622C92.5619 72.6321 87.8996 77.412 84.2177 80.3668C83.4181 81.0088 82.7639 81.5783 82.7641 81.6325C82.7643 81.6869 83.4766 81.8974 84.347 82.1005C85.8203 82.4442 86.4194 82.568 86.4402 82.7555C86.4553 82.8921 86.1631 83.0626 85.6782 83.3765C81.956 85.7862 77.5399 88.0908 74.1559 89.3898L71.957 90.2339L73.5382 91.2912C74.4079 91.8728 75.1469 92.3677 75.1802 92.3908C75.3186 92.4874 74.8119 92.9161 74.0646 93.3348C72.6118 94.1485 70.3966 94.75 63.4601 96.2135C57.5091 97.4694 54.9808 98.1994 52.6887 99.3243L51.5691 99.8736V104.392C51.5691 106.923 51.6306 108.948 51.7089 108.996C51.7858 109.044 52.0681 108.614 52.336 108.042C53.6542 105.228 55.9486 102.452 58.9817 100.001C61.7835 97.7376 61.9739 97.6552 67.9386 96.1278C70.3792 95.503 71.2623 95.2777 72.1383 95.0276C72.6788 94.8733 73.2166 94.7096 74.1158 94.4367C75.6815 93.9615 78.5244 92.7059 79.1115 92.2303C79.4896 91.9241 79.3876 91.7953 78.1057 90.9604C77.5081 90.571 77.0782 90.1997 77.1503 90.1349C77.2226 90.0704 78.1502 89.5693 79.2119 89.0216C83.4575 86.8317 86.2879 84.87 89.0566 82.1985C90.0082 81.2803 90.4531 80.8829 90.3777 80.6644C90.3118 80.4735 89.8488 80.4191 88.9796 80.2733C88.3638 80.17 87.8599 80.0478 87.8599 80.0016C87.8599 79.9555 88.4367 79.2859 89.1419 78.5133C91.7355 75.6712 94.1708 72.3567 96.1046 69.0368C96.6663 68.0727 97.1257 67.2517 97.1257 67.2124C97.1257 67.1729 96.4308 67.1646 95.5813 67.1937C94.7317 67.2229 94.0368 67.1994 94.037 67.1417C94.0371 67.0839 94.4851 66.1434 95.0327 65.052C96.9907 61.1486 98.3709 57.0863 98.9012 53.6659L99 53.0289L98.1014 53.2533C96.2292 53.7208 95.8659 53.7908 95.7755 53.7008C95.7244 53.6498 95.7636 53.071 95.8628 52.4146C96.4289 48.6626 96.7775 39.946 96.4076 38.7933L96.2763 38.3843L94.9847 39.1481C94.2742 39.568 93.6731 39.8908 93.6489 39.8651C93.6245 39.8395 93.5315 39.0558 93.4419 38.1236C93.1986 35.5877 92.81 32.294 92.7285 32.075C92.6889 31.9689 92.5475 31.2408 92.4142 30.4571C92.2808 29.6734 92.066 28.6855 91.9367 28.2618C91.4598 26.6982 90.9138 25.257 90.7984 25.257C90.7329 25.257 90.1464 25.6817 89.4947 26.2006C88.8432 26.7196 88.2905 27.1184 88.2666 27.0867C88.2426 27.0549 88.0681 26.6477 87.8788 26.1815C87.6895 25.7154 87.4733 25.1953 87.3982 25.0258C87.3233 24.8563 86.9006 23.8856 86.4591 22.8686C85.7094 21.1421 84.9959 19.7242 84.1303 18.2406C83.6326 17.3877 82.5518 15.8614 82.4437 15.8593C82.3952 15.8582 81.8466 16.4487 81.2249 17.1712C80.2324 18.3249 80.0644 18.4597 79.8463 18.2773C77.494 16.3085 75.785 15.0965 73.6939 13.915C69.2713 11.4158 64.3586 9.84743 58.0551 8.92196C55.6125 8.5634 55.2732 8.54937 55.2819 8.80778C55.2854 8.9138 55.928 9.45111 56.7099 10.002C58.353 11.1595 60.1021 12.6781 61.7869 14.4098C66.2657 19.0131 69.1087 24.6306 70.123 30.8813C70.3937 32.549 70.3783 38.4646 70.0986 40.2808C69.7065 42.8277 69.8844 47.236 70.4842 49.8335C71.3536 53.5989 71.5439 54.3598 71.7249 54.7936C72.0382 55.5452 72.5095 57.3515 72.9035 59.3111C73.2151 60.8612 73.2585 61.5173 73.2494 64.5502C73.2418 67.0443 73.1742 68.297 73.0083 69.0143C72.7798 70.0031 72.7758 70.0084 72.5378 69.6307C72.1923 69.0826 70.6094 66.3314 70.0027 65.2246L69.4854 64.281L70.709 64.0857L70.2504 63.3096C69.9981 62.8827 69.7917 62.5015 69.7917 62.4624C69.7917 62.4234 69.3155 61.5423 68.7334 60.5045C68.1514 59.4667 67.3783 58.0629 67.0153 57.3849C66.6524 56.7069 66.2897 56.0699 66.2096 55.9691C66.1075 55.8414 66.2065 55.7124 66.5378 55.5415C66.7986 55.4069 67.012 55.2629 67.012 55.2216C67.012 55.1802 66.0391 53.1672 64.85 50.7481C63.6609 48.3292 62.688 46.3143 62.688 46.2708C62.688 46.1435 64.6993 43.3015 64.8591 43.203C65.0718 43.0717 65.0254 42.2993 64.7175 40.846C64.5149 39.8895 64.404 39.6144 64.2828 39.7674C64.1934 39.8804 63.8685 40.3346 63.5607 40.7769C63.2531 41.2193 62.6735 42.0513 62.2727 42.6259C59.2157 47.0108 53.4216 55.9943 51.6868 59.0396C51.4097 59.5259 51.1404 59.9247 51.0882 59.9256C51.036 59.9267 50.8206 59.6673 50.6093 59.3496C50.0847 58.5605 48.6692 56.3601 47.9304 55.1853C46.569 53.0205 46.0883 52.266 42.4593 46.5986C41.5368 45.1578 40.2453 43.1297 39.5894 42.0916L38.3968 40.204L37.7332 41.6743C37.3681 42.483 37.0312 43.2651 36.9842 43.4126C36.9264 43.5943 37.2702 44.1248 38.0535 45.0624C38.6885 45.8226 39.2095 46.5238 39.2114 46.6209C39.2225 47.1964 36.9156 52.0714 35.3693 54.7403C34.9354 55.4893 34.6196 56.1655 34.6675 56.2427C34.7153 56.32 34.9987 56.3833 35.2972 56.3833C35.6552 56.3833 35.8231 56.449 35.79 56.576C35.7625 56.682 35.0225 58.1042 34.1455 59.7367C32.6939 62.4388 32.2757 62.2527 32.2757 62.2527ZM51.4147 20.2959C51.4147 20.0865 51.4942 19.5199 51.5915 19.0366C51.6939 18.5281 51.84 18.1819 51.9383 18.2146C52.0318 18.2457 52.1782 18.7855 52.2634 19.4142L52.4185 20.5572L53.3064 20.5393C53.7949 20.5295 54.1908 20.5641 54.1867 20.6164C54.1824 20.6686 53.6522 21.1056 53.0084 21.5875L51.838 22.4636L50.7108 21.5935C50.0908 21.1149 49.6174 20.6686 49.659 20.6016C49.7005 20.5346 50.1125 20.5239 50.5746 20.5782C51.3917 20.674 51.4147 20.6663 51.4147 20.2959ZM43.9145 25.4735C43.711 24.119 44.6555 22.5772 46.0869 21.9272C47.7104 21.1899 49.5401 21.6056 51.1444 23.0763L51.5691 23.4655L51.5674 29.3404L49.6764 29.3527C48.6365 29.3595 47.516 29.443 47.1864 29.5384L46.5872 29.7119L45.7755 28.8824C44.8575 27.944 44.0688 26.4994 43.9145 25.4735ZM52.7543 23.068C53.251 22.5465 53.8125 22.2117 54.8121 21.8406C55.7473 21.4935 56.4301 21.4996 57.4291 21.8639C58.3983 22.2174 59.1715 22.9051 59.6301 23.8213C60.3113 25.1826 59.6096 27.403 57.993 29.0009C57.4096 29.5778 57.1618 29.7269 56.912 29.6515C56.153 29.4225 54.0426 29.2519 53.1279 29.3456L52.1386 29.4472L52.3179 23.5261L52.7543 23.068ZM46.8595 30.0589C46.9157 30.0027 47.3903 29.9107 47.9141 29.8543C49.0751 29.7293 55.9879 29.8187 56.4722 29.9648C56.7816 30.0581 56.8197 30.1699 56.8197 30.9807V31.8915L54.9279 31.7716C52.5357 31.62 51.0658 31.6205 48.6207 31.7735L46.6762 31.8951L46.7168 31.028C46.739 30.5511 46.8033 30.115 46.8595 30.0589ZM45.5464 36.8146C47.0604 35.3003 48.4245 34.5001 50.102 34.142C50.8127 33.9902 51.126 33.9165 51.439 33.9178C51.7367 33.9189 52.0341 33.9879 52.6731 34.122C54.0599 34.4131 55.2451 34.9793 56.3564 35.8819C57.447 36.7673 57.7589 37.0999 59.2907 39.0098C59.3418 39.0734 60.2122 38.1612 61.2249 36.9825L63.0662 34.8396L63.4083 36.3275C63.5965 37.1459 63.7546 37.896 63.7597 37.9946C63.7648 38.0931 63.3348 38.7268 62.8038 39.4028C61.8879 40.569 60.362 42.6332 58.3956 45.3658C57.9078 46.0438 57.0665 47.292 56.5261 48.1395C55.9858 48.987 55.4326 49.8537 55.2969 50.0656C54.0604 51.9956 51.545 56.8129 51.3324 57.6583C51.1795 58.2663 51.0082 58.1811 50.5505 57.2694C49.9641 56.1014 44.7875 47.0578 43.5545 45.0475C42.3619 43.1027 41.0492 41.1793 39.9622 39.7833C39.1947 38.7979 39.1062 38.5464 39.363 38.0829C39.6334 37.5952 40.4502 35.6093 40.4502 35.4396C40.4502 35.1498 40.741 35.259 40.9292 35.6196C41.2665 36.2657 43.2764 39.2793 43.3692 39.2782C43.42 39.2776 43.6353 39.0184 43.8476 38.7022C44.06 38.386 44.8244 37.5365 45.5464 36.8146ZM56.7213 37.7422C55.7921 36.7408 54.8194 36.0649 53.6482 35.6073C51.8721 34.9131 49.8702 35.1322 48.0342 36.2216C46.3957 37.1938 43.6781 40.6152 44.1116 41.1601C44.6081 41.7837 50.237 52.9875 50.8115 54.4954C50.9902 54.964 51.2042 54.9326 51.3328 54.4187C51.6477 53.161 56.1902 44.5096 58.0034 41.7144C58.3716 41.1468 58.6728 40.6359 58.6728 40.5789C58.6728 40.3001 57.463 38.5416 56.7213 37.7422Z" fill="#2B323C"/>
<path d="M52.4405 1.03775C50.496 3.40936 47.2335 6.03631 43.8476 7.95643C41.7332 9.15572 41.1425 9.43956 36.3578 11.5557C34.5742 12.3446 31.9716 13.566 30.5742 14.2697C29.1767 14.9734 27.9606 15.5493 27.8717 15.5494C27.7622 15.5494 27.724 14.3742 27.754 11.9158C27.7978 8.29451 27.7198 7.782 27.316 9.04108C27.1222 9.64573 26.0503 11.8093 25.6187 12.4674C24.3945 14.3339 23.7686 15.1079 22.1304 16.782C20.0521 18.9058 18.6198 20.5366 16.7849 22.8683C16.1179 23.7159 15.4886 24.5152 15.3865 24.6443C15.2846 24.7734 14.8225 25.3801 14.36 25.9926C13.8975 26.605 13.4631 27.1061 13.3948 27.1061C13.3266 27.1061 13.2707 26.8504 13.2707 26.5381C13.2707 25.8957 12.768 23.9864 12.3248 22.9456C11.9917 22.1633 11.2764 20.7745 11.1107 20.5883C11.0505 20.5207 10.9586 21.0061 10.9064 21.667C10.6611 24.7781 9.86738 27.8724 8.48354 31.1124C7.08287 34.3921 5.72683 39.0672 5.24346 42.284C5.14154 42.962 4.98881 43.8981 4.90403 44.3643C4.81925 44.8304 4.71176 46.7545 4.66513 48.6403C4.61849 50.526 4.53772 52.066 4.48568 52.0626C4.43364 52.0592 4.13034 51.7298 3.8116 51.3307C3.49301 50.9314 3.02185 50.3678 2.76472 50.0781C2.5076 49.7882 1.83089 49.0082 1.26089 48.3446C0.691047 47.6809 0.171856 47.1379 0.107305 47.1379C-0.0849591 47.1379 -0.0306003 47.665 0.366128 49.6483C0.573063 50.6829 0.854124 52.1189 0.990485 52.8392C1.37609 54.8759 2.14994 58.3898 2.38189 59.157C3.64697 63.3415 4.44537 65.3003 6.2105 68.5504C7.46724 70.8642 11.1263 76.288 12.0362 77.1856C12.3191 77.4648 12.9805 78.451 12.9231 78.5083C12.8846 78.5467 11.6923 78.3473 10.2732 78.0652C8.85417 77.783 7.66074 77.6047 7.62105 77.6687C7.58137 77.7328 7.96311 78.0658 8.46949 78.4089C9.55296 79.143 10.6114 80.0218 13.9956 82.9965C16.6184 85.302 19.3198 87.4665 20.0316 87.8328C20.2626 87.9518 20.5431 88.1353 20.6549 88.2407C21.1441 88.7025 24.4985 90.4775 26.1752 91.162C27.1749 91.57 28.8381 92.131 29.3826 92.244C29.7001 92.3098 29.9609 92.4329 29.9623 92.5176C29.9651 92.6854 29.7231 92.7537 27.3716 93.2479C26.5062 93.4297 25.8301 93.6305 25.8695 93.694C25.9509 93.8254 28.7641 94.709 30.7212 95.2179C31.4431 95.4056 32.4855 95.6833 33.0376 95.8349C33.5897 95.9865 34.2846 96.1584 34.5819 96.2169C37.205 96.7334 42.4167 98.7668 44.6681 100.152C46.8152 101.474 48.7926 103.523 49.7156 105.384C49.989 105.935 50.2717 106.502 50.3443 106.644C50.4168 106.786 50.5604 107.358 50.6632 107.915C50.7661 108.472 50.9078 108.928 50.9781 108.928C51.0484 108.928 51.1058 106.89 51.1058 104.399V99.8704L50.6865 99.7653C50.4558 99.7075 49.9732 99.5268 49.614 99.3634C49.2547 99.2001 48.8806 99.0665 48.7826 99.0665C48.6845 99.0665 48.3854 98.9685 48.1178 98.8488C47.4669 98.5574 44.6572 97.6797 44.3758 97.6797C44.2529 97.6797 44.0316 97.6113 43.8841 97.5276C43.6183 97.3769 42.1932 97.0025 39.6926 96.4263C38.9787 96.2619 38.3378 96.0922 38.2684 96.0496C38.1991 96.0067 37.6019 95.87 36.9413 95.7457C36.2806 95.6213 35.2884 95.4227 34.7363 95.3045C34.1842 95.1862 33.3556 95.013 32.8949 94.9196C31.5494 94.6467 31.5712 94.6096 33.3465 94.1515C34.0684 93.965 35.0413 93.7134 35.5085 93.5921C35.9756 93.4707 36.6298 93.2745 36.9623 93.156C37.4997 92.9645 37.5338 92.9235 37.2711 92.7856C37.1085 92.7002 36.6628 92.5825 36.2806 92.524C34.3032 92.2207 29.8507 91.2019 29.466 90.9646C29.3897 90.9176 28.894 90.753 28.3641 90.5988C26.1857 89.9648 22.6436 88.3037 20.5289 86.9245C18.4749 85.5848 15.4835 82.8958 15.8947 82.7589C16.0425 82.7098 19.6098 83.1303 20.3358 83.2824C20.9909 83.4195 20.6978 82.9569 19.6409 82.1855C17.3936 80.5452 14.0986 77.5482 12.1881 75.4068C11.8069 74.9792 11.2515 74.3559 10.9543 74.0215C9.55759 72.4504 7.5128 69.3767 6.44739 67.2467C5.52452 65.4018 4.54374 62.8037 4.15165 61.1662C3.7631 59.543 3.35866 56.9769 3.47324 56.8626C3.52467 56.8112 4.7635 57.9999 6.22625 59.504C7.689 61.0081 8.96906 62.2388 9.07068 62.2388C9.28626 62.2388 9.31823 61.9875 9.11824 61.864C9.04273 61.8175 8.93308 61.5881 8.87471 61.3542C8.81618 61.1204 8.6738 60.721 8.55828 60.4667C8.28155 59.8581 7.66445 57.981 7.26633 56.5374C6.99469 55.5522 6.86605 54.9873 6.5297 53.3015C5.99908 50.6416 5.85794 45.0236 6.2471 42.0529C6.55348 39.7149 7.31961 36.4802 7.87138 35.1958C7.94427 35.0263 8.19167 34.4023 8.4213 33.809C9.04118 32.2074 10.1664 29.8797 10.3208 29.8797C10.6638 29.8797 11.5624 32.7577 11.5717 33.8861C11.5811 35.0151 11.9343 35.529 12.1276 34.695C12.9799 31.0206 15.0665 26.6 17.4313 23.4587C18.3383 22.2541 21.6006 18.9211 22.5391 18.2406C22.8856 17.9891 23.4185 17.5928 23.7234 17.3598C24.6268 16.669 24.7255 16.7541 24.6184 18.1303C24.5372 19.1738 24.2134 21.0958 23.9824 21.9055C23.8323 22.4316 24.1641 22.1647 24.5408 21.4562C25.3175 19.9952 27.039 18.3499 29.3587 16.8515C31.0035 15.789 34.8481 13.6039 36.8983 12.5664C40.4641 10.7618 45.2614 8.27463 47.0772 7.28906C47.4522 7.08566 47.7831 6.94328 47.8128 6.97287C47.9843 7.14422 46.4935 9.89151 44.9566 12.2363C43.2699 14.8093 41.7741 16.5562 38.3597 19.9408C34.1402 24.1233 32.4248 26.3914 29.3614 31.8379L28.7366 32.9486L30.2309 32.1994C33.2598 30.6807 35.3681 29.7047 35.5145 29.7534C35.9367 29.8937 34.5418 31.7402 31.8105 34.6565C28.1136 38.6039 27.3988 39.5901 26.464 42.0326C25.9252 43.4403 25.1778 46.1426 24.7111 48.3706C24.5601 49.091 24.3939 49.8191 24.3417 49.9886C24.2603 50.2528 23.463 55.5636 23.463 55.8414C23.463 55.8958 24.6617 54.8272 26.1269 53.4667C27.852 51.8648 28.8086 51.0749 28.8412 51.2253C28.8986 51.4891 28.4698 53.5279 28.2587 53.9949C28.1821 54.1644 27.8973 54.9965 27.6258 55.844C27.3543 56.6915 27.0408 57.6623 26.929 58.0013C26.0844 60.5618 26.1209 64.6995 27.0143 67.709C27.549 69.5105 27.8601 70.458 28.2034 71.3302C28.7639 72.7547 30.4128 76.0185 31.1225 77.1086L31.7245 78.0331L31.8323 76.184C31.9642 73.9207 32.221 71.8835 32.4585 71.2146C32.6588 70.6508 32.9678 70.5597 33.1145 71.0212C33.281 71.5445 34.9513 74.4328 35.7438 75.5676C36.68 76.9084 39.0024 79.2195 40.3129 80.1144C40.8556 80.4852 41.608 80.9969 41.9851 81.2519C42.8974 81.8687 47.5845 84.582 47.7379 84.582C47.8041 84.582 47.7209 84.2151 47.5527 83.7667C46.4611 80.855 46.3372 76.8337 47.2683 74.5228C47.427 74.1289 47.456 74.1164 47.6279 74.3687C47.7308 74.5197 47.8994 74.9898 48.0029 75.4136C48.2938 76.6058 49.3547 79.153 50.0437 80.3138C51.2539 82.3529 53.1095 84.0235 55.0055 84.7807C56.3492 85.3176 56.5243 85.3344 56.6735 84.9418C56.7871 84.6422 56.6633 84.5322 55.4586 83.8631C53.0187 82.5079 51.7615 80.9155 50.4913 77.5708C50.2982 77.0623 50.0426 76.4036 49.9232 76.107C49.6545 75.4391 49.1883 73.8024 48.4087 70.7908C48.0225 69.2986 47.5013 67.8568 47.1416 67.2853C46.6655 66.529 46.2347 66.5147 46.0963 67.2507C45.9689 67.9283 45.4406 69.5522 44.4556 72.2943C43.2695 75.5963 42.9844 77.2429 43.2954 78.9962C43.3592 79.3563 43.3663 79.6511 43.3112 79.6511C43.0655 79.6511 41.3623 78.7686 40.4223 78.1542C38.5849 76.9534 36.4889 74.6742 35.3517 72.6399C34.9045 71.84 34.417 70.3353 33.638 67.35C32.8596 64.3669 32.8707 64.4836 33.3591 64.4269L32.2757 62.2527C32.1213 61.8675 31.2901 59.8977 30.9976 59.6558C30.7882 59.4829 30.7522 59.8254 30.6733 62.7376C30.6112 65.0309 30.4912 66.5167 30.2738 67.6893C30.1028 68.6106 29.93 69.3974 29.8897 69.4375C29.7449 69.582 28.8714 68.4604 28.4151 67.5438C27.6389 65.9854 27.4145 64.8699 27.425 62.624C27.4355 60.4017 27.7697 58.4748 28.5073 56.3833C28.8245 55.4841 30.9883 49.9738 31.2606 49.3722C31.948 47.8532 33.6553 42.1882 33.6553 41.4265C33.6553 41.071 33.3181 41.3689 32.444 42.4962C31.2492 44.0373 28.9003 46.3465 27.6309 47.228C27.0921 47.6022 26.5897 47.9083 26.5147 47.9083C26.2506 47.9083 26.9516 44.1479 27.4911 42.6693C28.6506 39.4922 29.3929 38.4197 32.7176 35.1188C35.3073 32.5475 37.2912 30.1669 38.8176 27.7995C40.1236 25.7737 40.4195 25.2935 40.9816 24.2864L41.5663 23.2385L40.6862 23.7138C38.5694 24.8565 33.9356 27.1289 33.8654 27.0588C33.7276 26.9213 34.3957 25.7801 35.3388 24.5415C36.5442 22.9583 38.0178 21.454 39.8042 19.9829C45.5895 15.2187 49.8401 10.0177 51.8651 5.22517C52.1337 4.58955 52.4138 3.95932 52.4875 3.82464C52.6628 3.50475 53.5767 0.454981 53.5767 0.190253C53.5767 -0.211925 53.2898 0.00210759 52.4405 1.03775Z" fill="#2B323C"/>
</svg>
